<svg xmlns="http://www.w3.org/2000/svg" width="128pt" height="128pt" version="2" viewBox="0 0 128 128"><!--Walter Clozet-->
<path fill="#bc20d3" d="M89.8 5.75C87 9 68.85 35.2 67.75 37.6c-.6 1.3-1.4 2.4-1.85 2.4-1.1 0-9.1-17.3-11.9-25.75-2.65-8-6-10.35-6-4.2 0 4 9.7 28.45 12.75 32.1l2.4 2.85-3.55 4.9c-2 2.65-3.6 5.3-3.6 5.85 0 4-20.95-20.25-26.5-30.65-3.15-5.9-7.5-8.4-7.5-4.3 0 7 21.7 35.2 28.55 37.05 1.55.4 2.95 1.2 3.15 1.7.3.95-10.95 19.6-17.75 29.45-7.65 11.1-12.1 17.7-13.7 20.4-.95 1.55-3.25 5.15-5.05 7.9-3.55 5.45-3.55 8.05.05 7.5 1.5-.2 3.3-2.1 5.45-5.8 1.75-3.05 4.85-7.75 6.8-10.5 2-2.75 6.5-9.5 10-15S48.35 79.65 51.35 75c3.05-4.7 6.55-10.75 7.9-13.5 1.3-2.8 4.15-7.5 6.35-10.5 2.15-3.05 4.5-6.75 5.2-8.3.65-1.6 2.5-4.5 4.05-6.5C83.45 25 95 7.65 95 5.95c0-2.45-3.1-2.6-5.2-.2zM94.15 35.7C78.05 43.75 61 60.7 61 68.7c0 8.45.9 8.8 21.85 8.75 21.8-.05 27.15-.75 27.15-3.65 0-1.9-.4-2-5.75-1.45C77.3 75.2 65 74.05 65 68.7c0-5.55 25.25-25.85 39.25-31.55 2-.8 2.75-1.8 2.75-3.65 0-3.55-1.95-3.2-12.85 2.2z"/></svg>
